# xmcd CD database file
#
# Track frame offsets:
#	150
#	23540
#	40005
#	70705
#	92290
#	114517
#	133055
#	147060
#	166580
#
# Disc length: 2459 seconds
#
# Revision: 2
# Processed by: cddbd v1.5.1PL0 Copyright (c) Steve Scherf et al.
# Submitted via: CDex 1.51
#
DISCID=61099909
DTITLE=Robotobibok - Nawyki Przyrody [Vytvornia OM CD 005]
DYEAR=2004
DGENRE=Jazz
TTITLE0=Kamaji
TTITLE1=Symfonia zmyslow
TTITLE2=54 kW
TTITLE3=Skipping A
TTITLE4=100000 Lat Gwarancji
TTITLE5=Tylko Dla Zwierzat
TTITLE6=Zemsta Gniewosza
TTITLE7=Skipping C
TTITLE8=Jurij
EXTD=YEAR: 2004
EXTT0=
EXTT1=
EXTT2=
EXTT3=
EXTT4=
EXTT5=
EXTT6=
EXTT7=
EXTT8=
PLAYORDER=
